REM DIRINDEX 1\2,1\4,1\3\5,1\3\6,1\3\7
REM DIRNAME cjc082,folder01,folder02,folder03,folder04,folder05,folder06
TITLE ""
FILE "CD1Track34.mp3" MP3
  TRACK 01 AUDIO
    TITLE "0:"
    INDEX 01 00:00:00
  TRACK 02 AUDIO
    TITLE "5:cjc082_0581"
    INDEX 01 00:00:31
  TRACK 03 AUDIO
    TITLE "0:"
    INDEX 01 00:01:52
  TRACK 04 AUDIO
    TITLE "6:cjc082_0582"
    INDEX 01 00:02:22
  TRACK 05 AUDIO
    TITLE "0:"
    INDEX 01 00:03:45
  TRACK 06 AUDIO
    TITLE "5:cjc082_0583"
    INDEX 01 00:04:09
  TRACK 07 AUDIO
    TITLE "0:"
    INDEX 01 00:05:24
  TRACK 08 AUDIO
    TITLE "6:cjc082_0584"
    INDEX 01 00:05:73
  TRACK 09 AUDIO
    TITLE "0:"
    INDEX 01 00:07:03
  TRACK 10 AUDIO
    TITLE "5:cjc082_0585"
    INDEX 01 00:07:51
  TRACK 11 AUDIO
    TITLE "0:"
    INDEX 01 00:08:72
  TRACK 12 AUDIO
    TITLE "6:cjc082_0586"
    INDEX 01 00:09:38
  TRACK 13 AUDIO
    TITLE "0:"
    INDEX 01 00:11:07
  TRACK 14 AUDIO
    TITLE "5:cjc082_0587"
    INDEX 01 00:11:52
  TRACK 15 AUDIO
    TITLE "0:"
    INDEX 01 00:13:06
  TRACK 16 AUDIO
    TITLE "6:cjc082_0588"
    INDEX 01 00:13:53
  TRACK 17 AUDIO
    TITLE "0:"
    INDEX 01 00:14:72
  TRACK 18 AUDIO
    TITLE "5:cjc082_0589"
    INDEX 01 00:15:42
  TRACK 19 AUDIO
    TITLE "0:"
    INDEX 01 00:17:00
  TRACK 20 AUDIO
    TITLE "6:cjc082_0590"
    INDEX 01 00:17:51
  TRACK 21 AUDIO
    TITLE "0:"
    INDEX 01 00:18:66
  TRACK 22 AUDIO
    TITLE "5:cjc082_0591"
    INDEX 01 00:19:34
  TRACK 23 AUDIO
    TITLE "0:"
    INDEX 01 00:20:63
  TRACK 24 AUDIO
    TITLE "6:cjc082_0592"
    INDEX 01 00:21:33
  TRACK 25 AUDIO
    TITLE "0:"
    INDEX 01 00:22:54
  TRACK 26 AUDIO
    TITLE "5:cjc082_0593"
    INDEX 01 00:23:24
  TRACK 27 AUDIO
    TITLE "0:"
    INDEX 01 00:24:51
  TRACK 28 AUDIO
    TITLE "6:cjc082_0594"
    INDEX 01 00:25:25
  TRACK 29 AUDIO
    TITLE "0:"
    INDEX 01 00:26:36
  TRACK 30 AUDIO
    TITLE "5:cjc082_0595"
    INDEX 01 00:27:04
  TRACK 31 AUDIO
    TITLE "0:"
    INDEX 01 00:28:27
  TRACK 32 AUDIO
    TITLE "6:cjc082_0596"
    INDEX 01 00:29:01
  TRACK 33 AUDIO
    TITLE "0:"
    INDEX 01 00:30:22
  TRACK 34 AUDIO
    TITLE "5:cjc082_0597"
    INDEX 01 00:30:67
  TRACK 35 AUDIO
    TITLE "0:"
    INDEX 01 00:32:45
  TRACK 36 AUDIO
    TITLE "6:cjc082_0598"
    INDEX 01 00:33:09
  TRACK 37 AUDIO
    TITLE "0:"
    INDEX 01 00:34:69
  TRACK 38 AUDIO
    TITLE "5:cjc082_0599"
    INDEX 01 00:35:37
  TRACK 39 AUDIO
    TITLE "0:"
    INDEX 01 00:36:58
  TRACK 40 AUDIO
    TITLE "6:cjc082_0600"
    INDEX 01 00:37:28
  TRACK 41 AUDIO
    TITLE "0:"
    INDEX 01 00:38:57
  TRACK 42 AUDIO
    TITLE "5:cjc082_0601"
    INDEX 01 00:39:31
  TRACK 43 AUDIO
    TITLE "0:"
    INDEX 01 00:41:51
  TRACK 44 AUDIO
    TITLE "6:cjc082_0602"
    INDEX 01 00:42:18
  TRACK 45 AUDIO
    TITLE "0:"
    INDEX 01 00:45:12
  TRACK 46 AUDIO
    TITLE "5:cjc082_0603"
    INDEX 01 00:45:61
  TRACK 47 AUDIO
    TITLE "0:"
    INDEX 01 00:47:13
  TRACK 48 AUDIO
    TITLE "6:cjc082_0604"
    INDEX 01 00:47:64
  TRACK 49 AUDIO
    TITLE "0:"
    INDEX 01 00:49:18
  TRACK 50 AUDIO
    TITLE "5:cjc082_0605"
    INDEX 01 00:49:65
  TRACK 51 AUDIO
    TITLE "0:"
    INDEX 01 00:50:72
  TRACK 52 AUDIO
    TITLE "6:cjc082_0606"
    INDEX 01 00:51:42
  TRACK 53 AUDIO
    TITLE "0:"
    INDEX 01 00:54:27
  TRACK 54 AUDIO
    TITLE "5:cjc082_0607"
    INDEX 01 00:55:01
  TRACK 55 AUDIO
    TITLE "0:"
    INDEX 01 00:56:00
  TRACK 56 AUDIO
    TITLE "6:cjc082_0608"
    INDEX 01 00:56:51
  TRACK 57 AUDIO
    TITLE "0:"
    INDEX 01 00:58:30
  TRACK 58 AUDIO
    TITLE "7:cjc082_0609"
    INDEX 01 00:59:71
  TRACK 59 AUDIO
    TITLE "0:"
    INDEX 01 01:10:04
